<?xml version="1.0" encoding="utf-8"?>
<!-- Generator: Adobe Illustrator 15.0.0, SVG Export Plug-In . SVG Version: 6.00 Build 0)  -->
<!DOCTYPE svg PUBLIC "-//W3C//DTD SVG 1.0//EN" "http://www.w3.org/TR/2001/REC-SVG-20010904/DTD/svg10.dtd">
<svg version="1.0" xmlns="http://www.w3.org/2000/svg" xmlns:xlink="http://www.w3.org/1999/xlink" x="0px" y="0px" width="1400px"
	 height="980px" viewBox="0 0 1400 980" enable-background="new 0 0 1400 980" xml:space="preserve">
<g id="background">
</g>
<g id="logos">
	<g>
		<g>
			<path fill="#FFFFFF" d="M667.734,396.257c0,10.249-63.034,18.562-140.792,18.562s-140.792-8.313-140.792-18.562
				c0-10.25,63.035-18.562,140.792-18.562S667.734,386.007,667.734,396.257z"/>
			<ellipse fill="#FDFDFD" cx="526.942" cy="396.257" rx="137.799" ry="18.167"/>
			<ellipse fill="#FCFCFC" cx="526.942" cy="396.257" rx="134.808" ry="17.773"/>
			<ellipse fill="#FAFBFB" cx="526.942" cy="396.258" rx="131.815" ry="17.379"/>
			<ellipse fill="#F9F9FA" cx="526.942" cy="396.258" rx="128.823" ry="16.984"/>
			<ellipse fill="#F8F8F9" cx="526.942" cy="396.257" rx="125.831" ry="16.589"/>
			<ellipse fill="#F7F7F8" cx="526.942" cy="396.257" rx="122.839" ry="16.195"/>
			<ellipse fill="#F6F7F7" cx="526.942" cy="396.258" rx="119.847" ry="15.801"/>
			<ellipse fill="#F5F6F6" cx="526.942" cy="396.258" rx="116.854" ry="15.406"/>
			<ellipse fill="#F4F5F5" cx="526.942" cy="396.258" rx="113.862" ry="15.011"/>
			<ellipse fill="#F4F4F4" cx="526.942" cy="396.258" rx="110.87" ry="14.617"/>
			<ellipse fill="#F3F3F4" cx="526.942" cy="396.258" rx="107.878" ry="14.222"/>
			<ellipse fill="#F2F2F3" cx="526.942" cy="396.258" rx="104.886" ry="13.828"/>
			<ellipse fill="#F1F2F2" cx="526.942" cy="396.258" rx="101.894" ry="13.433"/>
			<ellipse fill="#F0F1F1" cx="526.942" cy="396.258" rx="98.901" ry="13.039"/>
			<ellipse fill="#EFF0F1" cx="526.942" cy="396.258" rx="95.909" ry="12.645"/>
			<ellipse fill="#EFEFF0" cx="526.942" cy="396.258" rx="92.918" ry="12.25"/>
			<ellipse fill="#EEEEEF" cx="526.942" cy="396.258" rx="89.926" ry="11.855"/>
			<ellipse fill="#EDEEEE" cx="526.942" cy="396.258" rx="86.933" ry="11.461"/>
			<ellipse fill="#ECEDEE" cx="526.942" cy="396.258" rx="83.941" ry="11.066"/>
			<ellipse fill="#EBECED" cx="526.942" cy="396.258" rx="80.949" ry="10.672"/>
			<ellipse fill="#EBEBEC" cx="526.942" cy="396.258" rx="77.957" ry="10.277"/>
			<ellipse fill="#EAEAEB" cx="526.942" cy="396.258" rx="74.965" ry="9.883"/>
			<ellipse fill="#E9EAEB" cx="526.942" cy="396.258" rx="71.973" ry="9.488"/>
			<ellipse fill="#E8E9EA" cx="526.942" cy="396.258" rx="68.98" ry="9.094"/>
			<ellipse fill="#E7E8E9" cx="526.942" cy="396.258" rx="65.988" ry="8.699"/>
			<ellipse fill="#E6E7E8" cx="526.942" cy="396.259" rx="62.996" ry="8.304"/>
			<ellipse fill="#E5E6E7" cx="526.942" cy="396.258" rx="60.004" ry="7.91"/>
			<ellipse fill="#E5E6E7" cx="526.942" cy="396.259" rx="57.012" ry="7.515"/>
			<ellipse fill="#E4E5E6" cx="526.942" cy="396.258" rx="54.02" ry="7.121"/>
			<ellipse fill="#E3E4E5" cx="526.942" cy="396.259" rx="51.027" ry="6.727"/>
			<ellipse fill="#E2E3E4" cx="526.942" cy="396.258" rx="48.036" ry="6.332"/>
			<ellipse fill="#E1E2E4" cx="526.942" cy="396.259" rx="45.043" ry="5.937"/>
			<ellipse fill="#E1E2E3" cx="526.942" cy="396.259" rx="42.051" ry="5.543"/>
			<ellipse fill="#E0E1E2" cx="526.942" cy="396.259" rx="39.06" ry="5.149"/>
			<ellipse fill="#DFE0E1" cx="526.942" cy="396.259" rx="36.067" ry="4.754"/>
			<ellipse fill="#DEDFE0" cx="526.942" cy="396.259" rx="33.075" ry="4.359"/>
			<ellipse fill="#DDDEE0" cx="526.942" cy="396.259" rx="30.083" ry="3.965"/>
			<ellipse fill="#DDDEDF" cx="526.942" cy="396.259" rx="27.091" ry="3.57"/>
			<ellipse fill="#DCDDDE" cx="526.942" cy="396.256" rx="24.099" ry="3.179"/>
		</g>
		<g>
			<linearGradient id="SVGID_1_" gradientUnits="userSpaceOnUse" x1="520.5156" y1="305.5537" x2="520.5156" y2="94.5654">
				<stop  offset="0" style="stop-color:#C4161C"/>
				<stop  offset="1" style="stop-color:#ED1C24"/>
			</linearGradient>
			<path fill="url(#SVGID_1_)" d="M614.165,160.518c14.517-22.855,13.385-51.896,8.704-62.81
				c-10.915-4.684-39.956-5.816-62.811,8.701c-35.022,22.249-76.967,78.068-104.117,108.692c4.888,16.97,0.565,36.211-1.348,43.201
				c-22.719,23.777-39.574,42.993-39.572,47.251l157.575-157.575c0,0-60.117,66.949-113.067,118.809c0,0,24.765-8.257,45.942-2.156
				C536.097,237.484,591.916,195.535,614.165,160.518z"/>
			<linearGradient id="SVGID_2_" gradientUnits="userSpaceOnUse" x1="526.9419" y1="316.9531" x2="526.9419" y2="86.5713">
				<stop  offset="0" style="stop-color:#F15A22"/>
				<stop  offset="1" style="stop-color:#FAA61A"/>
			</linearGradient>
			<path fill="url(#SVGID_2_)" d="M510.882,270.733c-2.09,1.854-4.98,2.509-7.667,1.734c-4.441-1.279-9.524-1.929-15.109-1.929
				c-13.762,0-25.887,3.948-26.008,3.988c-1.548,0.511-3.161,0.535-4.653,0.138l-1.48,1.48
				c12.387,14.949,27.505,24.617,44.542,24.496c66.835-0.475,145.661-76.994,130.941-134.585c-1.083-4.24-2.649-8.263-4.64-12.07
				c-1.612,3.713-3.512,7.37-5.756,10.903c-17.814,28.038-55.593,59.731-85.95,85.197
				C526.221,257.535,517.835,264.57,510.882,270.733z M427.337,117.919c15.776-15.775,45.548-24.823,81.682-24.823
				c16.498,0,32.892,1.903,48.218,5.499c2.865-1.726,5.756-3.239,8.635-4.519c-17.824-4.888-37.276-7.505-56.853-7.505
				c-37.852,0-69.305,9.744-86.295,26.735c-26.637,26.636-21.414,88.32-2.977,132.836c3.682,8.891,7.787,17.019,12.245,24.359
				c1.45-1.588,2.974-3.244,4.597-4.992c-3.908-6.629-7.528-13.929-10.814-21.863C408.147,201.083,402.704,142.554,427.337,117.919z
				 M647.249,162.018c-2.632-10.298-7.494-19.82-14.418-28.414c-0.478,2.78-1.088,5.595-1.85,8.42
				c4.64,6.698,7.983,13.927,9.947,21.609c6.401,25.047-1.885,54.162-23.333,81.984c-29.664,38.479-76.691,64.524-117.011,64.811
				l-0.396,0.001c-18.671-0.001-36.317-9.618-51.217-27.292l-4.62,4.619c16.092,18.902,35.332,29.196,55.836,29.197h0.006
				l0.426-0.001c42.232-0.3,91.317-27.366,122.142-67.352C645.462,220.154,654.158,189.051,647.249,162.018z M448.105,217.359
				c-0.773-2.685-0.119-5.578,1.734-7.668c6.169-6.958,13.21-15.351,20.665-24.236c22.591-26.929,50.082-59.688,75.576-79.175
				c-43.72-8.075-91.598-1.664-111.821,18.56c-22.808,22.808-15.731,88.856,9.351,133.182c1.17-1.238,2.378-2.51,3.625-3.818
				C448.943,247.283,452.062,231.097,448.105,217.359z"/>
		</g>
	</g>
	<g>
		<g>
			<path fill="#FFFFFF" d="M324.625,396.257c0,10.249-63.034,18.562-140.792,18.562s-140.792-8.313-140.792-18.562
				c0-10.25,63.035-18.562,140.792-18.562S324.625,386.007,324.625,396.257z"/>
			<ellipse fill="#FDFDFD" cx="183.834" cy="396.257" rx="137.799" ry="18.167"/>
			<ellipse fill="#FCFCFC" cx="183.834" cy="396.257" rx="134.807" ry="17.773"/>
			<ellipse fill="#FAFBFB" cx="183.834" cy="396.258" rx="131.815" ry="17.379"/>
			<ellipse fill="#F9F9FA" cx="183.834" cy="396.258" rx="128.823" ry="16.984"/>
			<ellipse fill="#F8F8F9" cx="183.834" cy="396.257" rx="125.831" ry="16.589"/>
			<ellipse fill="#F7F7F8" cx="183.834" cy="396.257" rx="122.838" ry="16.195"/>
			<ellipse fill="#F6F7F7" cx="183.834" cy="396.258" rx="119.847" ry="15.801"/>
			<ellipse fill="#F5F6F6" cx="183.834" cy="396.258" rx="116.854" ry="15.406"/>
			<ellipse fill="#F4F5F5" cx="183.834" cy="396.258" rx="113.862" ry="15.011"/>
			<ellipse fill="#F4F4F4" cx="183.834" cy="396.258" rx="110.87" ry="14.617"/>
			<ellipse fill="#F3F3F4" cx="183.834" cy="396.258" rx="107.878" ry="14.222"/>
			<ellipse fill="#F2F2F3" cx="183.834" cy="396.258" rx="104.886" ry="13.828"/>
			<ellipse fill="#F1F2F2" cx="183.834" cy="396.258" rx="101.894" ry="13.433"/>
			<ellipse fill="#F0F1F1" cx="183.834" cy="396.258" rx="98.901" ry="13.039"/>
			<ellipse fill="#EFF0F1" cx="183.834" cy="396.258" rx="95.909" ry="12.645"/>
			<ellipse fill="#EFEFF0" cx="183.834" cy="396.258" rx="92.917" ry="12.25"/>
			<ellipse fill="#EEEEEF" cx="183.834" cy="396.258" rx="89.925" ry="11.855"/>
			<ellipse fill="#EDEEEE" cx="183.834" cy="396.258" rx="86.934" ry="11.461"/>
			<ellipse fill="#ECEDEE" cx="183.834" cy="396.258" rx="83.941" ry="11.066"/>
			<ellipse fill="#EBECED" cx="183.834" cy="396.258" rx="80.949" ry="10.672"/>
			<ellipse fill="#EBEBEC" cx="183.834" cy="396.258" rx="77.957" ry="10.277"/>
			<ellipse fill="#EAEAEB" cx="183.834" cy="396.258" rx="74.965" ry="9.883"/>
			<ellipse fill="#E9EAEB" cx="183.834" cy="396.258" rx="71.973" ry="9.488"/>
			<ellipse fill="#E8E9EA" cx="183.834" cy="396.258" rx="68.98" ry="9.094"/>
			<ellipse fill="#E7E8E9" cx="183.834" cy="396.258" rx="65.988" ry="8.699"/>
			<ellipse fill="#E6E7E8" cx="183.834" cy="396.259" rx="62.996" ry="8.304"/>
			<ellipse fill="#E5E6E7" cx="183.834" cy="396.258" rx="60.004" ry="7.91"/>
			<ellipse fill="#E5E6E7" cx="183.834" cy="396.259" rx="57.012" ry="7.515"/>
			<ellipse fill="#E4E5E6" cx="183.834" cy="396.258" rx="54.02" ry="7.121"/>
			<ellipse fill="#E3E4E5" cx="183.834" cy="396.259" rx="51.028" ry="6.727"/>
			<ellipse fill="#E2E3E4" cx="183.834" cy="396.258" rx="48.036" ry="6.332"/>
			<ellipse fill="#E1E2E4" cx="183.834" cy="396.259" rx="45.043" ry="5.937"/>
			<ellipse fill="#E1E2E3" cx="183.834" cy="396.259" rx="42.051" ry="5.543"/>
			<ellipse fill="#E0E1E2" cx="183.834" cy="396.259" rx="39.06" ry="5.149"/>
			<ellipse fill="#DFE0E1" cx="183.834" cy="396.259" rx="36.067" ry="4.754"/>
			<ellipse fill="#DEDFE0" cx="183.834" cy="396.259" rx="33.075" ry="4.359"/>
			<ellipse fill="#DDDEE0" cx="183.834" cy="396.259" rx="30.083" ry="3.965"/>
			<ellipse fill="#DDDEDF" cx="183.834" cy="396.259" rx="27.091" ry="3.57"/>
			<ellipse fill="#DCDDDE" cx="183.834" cy="396.256" rx="24.099" ry="3.179"/>
		</g>
		<g>
			<linearGradient id="SVGID_3_" gradientUnits="userSpaceOnUse" x1="246.5054" y1="316.9531" x2="246.5054" y2="82.646">
				<stop  offset="0" style="stop-color:#7B6541"/>
				<stop  offset="1" style="stop-color:#BA9765"/>
			</linearGradient>
			<path fill="url(#SVGID_3_)" d="M181.057,316.953c-4.426-60.238,8.667-137.906,69.945-193.894
				c-50.301,37.06-69.392,87.839-72.896,141.591c-22.493-35.573-11.335-119.724,38.766-155.232
				c50.826-36.021,109.12-25.27,109.12-25.27c-23.475,14.355-10.031,42.533-50.165,74.713
				c-40.141,32.177-57.583,53.1-85.682,107.803c0,0-6.375,18.396-3.642,45.591L181.057,316.953z"/>
			<linearGradient id="SVGID_4_" gradientUnits="userSpaceOnUse" x1="260.6655" y1="306.4072" x2="260.6655" y2="135.9199">
				<stop  offset="0" style="stop-color:#FFDD7F"/>
				<stop  offset="1" style="stop-color:#FFF1D0"/>
			</linearGradient>
			<path fill="url(#SVGID_4_)" d="M280.928,165.225c-40.165,32.195-56.589,52.804-83.222,104.568
				c-0.81,2.661-4.693,16.686-3.49,36.614c27.537-20.451,66.189-25.784,112.922-19.381l20.206-146.192
				c-6.974-2.067-13.867-3.697-20.661-4.914C301.46,145.105,293.698,154.985,280.928,165.225z"/>
			<linearGradient id="SVGID_5_" gradientUnits="userSpaceOnUse" x1="106.728" y1="305.5518" x2="106.728" y2="133.2358">
				<stop  offset="0" style="stop-color:#FFDD7F"/>
				<stop  offset="1" style="stop-color:#FFF1D0"/>
			</linearGradient>
			<path fill="url(#SVGID_5_)" d="M173.133,271.115c-0.745-0.572-1.398-1.28-1.921-2.106c-12.235-19.351-15.657-51.409-8.93-83.664
				c1.93-9.254,4.615-18.149,7.956-26.557c-33.969-25.442-79.894-32.782-129.915-17.954l20.206,146.192
				c46.078-6.313,84.302-1.221,111.76,18.525C171.948,295.272,172.088,283.641,173.133,271.115z"/>
		</g>
	</g>
	<g>
		<g>
			<path fill="#FFFFFF" d="M1017.59,396.257c0,10.249-63.034,18.562-140.792,18.562c-77.758,0-140.793-8.313-140.793-18.562
				c0-10.25,63.035-18.562,140.793-18.562C954.556,377.695,1017.59,386.007,1017.59,396.257z"/>
			<ellipse fill="#FDFDFD" cx="876.798" cy="396.257" rx="137.799" ry="18.167"/>
			<ellipse fill="#FCFCFC" cx="876.798" cy="396.257" rx="134.807" ry="17.773"/>
			<ellipse fill="#FAFBFB" cx="876.798" cy="396.258" rx="131.815" ry="17.379"/>
			<ellipse fill="#F9F9FA" cx="876.798" cy="396.258" rx="128.823" ry="16.984"/>
			<ellipse fill="#F8F8F9" cx="876.798" cy="396.257" rx="125.831" ry="16.589"/>
			<ellipse fill="#F7F7F8" cx="876.798" cy="396.257" rx="122.839" ry="16.195"/>
			<ellipse fill="#F6F7F7" cx="876.798" cy="396.258" rx="119.847" ry="15.801"/>
			<ellipse fill="#F5F6F6" cx="876.798" cy="396.258" rx="116.854" ry="15.406"/>
			<ellipse fill="#F4F5F5" cx="876.799" cy="396.258" rx="113.861" ry="15.011"/>
			<ellipse fill="#F4F4F4" cx="876.798" cy="396.258" rx="110.87" ry="14.617"/>
			<ellipse fill="#F3F3F4" cx="876.798" cy="396.258" rx="107.878" ry="14.222"/>
			<ellipse fill="#F2F2F3" cx="876.799" cy="396.258" rx="104.885" ry="13.828"/>
			<ellipse fill="#F1F2F2" cx="876.798" cy="396.258" rx="101.895" ry="13.433"/>
			<ellipse fill="#F0F1F1" cx="876.798" cy="396.258" rx="98.902" ry="13.039"/>
			<ellipse fill="#EFF0F1" cx="876.798" cy="396.258" rx="95.909" ry="12.645"/>
			<ellipse fill="#EFEFF0" cx="876.799" cy="396.258" rx="92.917" ry="12.25"/>
			<ellipse fill="#EEEEEF" cx="876.798" cy="396.258" rx="89.925" ry="11.855"/>
			<ellipse fill="#EDEEEE" cx="876.798" cy="396.258" rx="86.933" ry="11.461"/>
			<ellipse fill="#ECEDEE" cx="876.798" cy="396.258" rx="83.941" ry="11.066"/>
			<ellipse fill="#EBECED" cx="876.798" cy="396.258" rx="80.949" ry="10.672"/>
			<ellipse fill="#EBEBEC" cx="876.798" cy="396.258" rx="77.957" ry="10.277"/>
			<ellipse fill="#EAEAEB" cx="876.798" cy="396.258" rx="74.964" ry="9.883"/>
			<ellipse fill="#E9EAEB" cx="876.798" cy="396.258" rx="71.973" ry="9.488"/>
			<ellipse fill="#E8E9EA" cx="876.799" cy="396.258" rx="68.979" ry="9.094"/>
			<ellipse fill="#E7E8E9" cx="876.798" cy="396.258" rx="65.988" ry="8.699"/>
			<ellipse fill="#E6E7E8" cx="876.798" cy="396.259" rx="62.996" ry="8.304"/>
			<ellipse fill="#E5E6E7" cx="876.799" cy="396.258" rx="60.003" ry="7.91"/>
			<ellipse fill="#E5E6E7" cx="876.798" cy="396.259" rx="57.012" ry="7.515"/>
			<ellipse fill="#E4E5E6" cx="876.798" cy="396.258" rx="54.02" ry="7.121"/>
			<ellipse fill="#E3E4E5" cx="876.798" cy="396.259" rx="51.028" ry="6.727"/>
			<ellipse fill="#E2E3E4" cx="876.798" cy="396.258" rx="48.035" ry="6.332"/>
			<ellipse fill="#E1E2E4" cx="876.798" cy="396.259" rx="45.043" ry="5.937"/>
			<ellipse fill="#E1E2E3" cx="876.798" cy="396.259" rx="42.051" ry="5.543"/>
			<ellipse fill="#E0E1E2" cx="876.798" cy="396.259" rx="39.059" ry="5.149"/>
			<ellipse fill="#DFE0E1" cx="876.798" cy="396.259" rx="36.067" ry="4.754"/>
			<ellipse fill="#DEDFE0" cx="876.798" cy="396.259" rx="33.075" ry="4.359"/>
			<ellipse fill="#DDDEE0" cx="876.798" cy="396.259" rx="30.083" ry="3.965"/>
			<ellipse fill="#DDDEDF" cx="876.798" cy="396.259" rx="27.09" ry="3.57"/>
			<ellipse fill="#DCDDDE" cx="876.798" cy="396.256" rx="24.098" ry="3.179"/>
		</g>
		<g>
			<linearGradient id="SVGID_6_" gradientUnits="userSpaceOnUse" x1="949.4556" y1="316.9531" x2="949.4556" y2="100.8154">
				<stop  offset="0" style="stop-color:#03BFD7"/>
				<stop  offset="1" style="stop-color:#A1DBE4"/>
			</linearGradient>
			<path fill="url(#SVGID_6_)" d="M1022.115,133.79v32.975h32.973V133.79H1022.115z M989.139,100.815H862.113
				c-10.101,0-18.289,8.188-18.289,18.291v197.847c0-10.101,8.188-18.291,18.289-18.291h127.026v-32.975h32.975v-32.975h-32.975
				v-32.974h32.975v-32.975h-32.975V100.815z M1022.115,232.713h32.973v-32.974h-32.973V232.713z"/>
			<linearGradient id="SVGID_7_" gradientUnits="userSpaceOnUse" x1="771.1655" y1="316.9531" x2="771.1655" y2="100.8154">
				<stop  offset="0" style="stop-color:#00AEEF"/>
				<stop  offset="1" style="stop-color:#6DCFF6"/>
			</linearGradient>
			<path fill="url(#SVGID_7_)" d="M698.507,100.815h127.027c10.101,0,18.29,8.189,18.29,18.291v197.847
				c0-10.101-8.188-18.291-18.29-18.291H698.507V100.815z"/>
			<linearGradient id="SVGID_8_" gradientUnits="userSpaceOnUse" x1="956.1646" y1="298.6621" x2="956.1646" y2="100.8154">
				<stop  offset="0" style="stop-color:#00AEEF"/>
				<stop  offset="1" style="stop-color:#6DCFF6"/>
			</linearGradient>
			<path fill="url(#SVGID_8_)" d="M890.216,100.815v32.975h32.974v-32.975H890.216z M890.216,199.739h32.974v-32.975h-32.974
				V199.739z M923.19,166.765h32.975V133.79H923.19V166.765z M956.165,298.662v-32.975H923.19v32.975H956.165z M857.241,232.713
				h32.975v-32.974h-32.975V232.713z M956.165,232.713v-32.974H923.19v32.974H956.165z M890.216,265.688h32.974v-32.975h-32.974
				V265.688z M1022.115,265.688h32.973v-32.975h-32.973V265.688z M956.166,100.815v32.975h32.974v-32.975H956.166z
				 M1022.115,100.815v32.975h32.973v-32.975H1022.115z M956.166,199.739h32.974v-32.975h-32.974V199.739z M956.166,232.713v32.975
				h32.974v-32.975H956.166z M989.139,166.765h32.975V133.79h-32.975V166.765z M989.139,298.662h32.975v-32.975h-32.975V298.662z"/>
		</g>
	</g>
	<g>
		<g>
			<path fill="#FFFFFF" d="M324.625,880.945c0,10.248-63.034,18.562-140.792,18.562s-140.792-8.314-140.792-18.562
				c0-10.251,63.035-18.562,140.792-18.562S324.625,870.694,324.625,880.945z"/>
			<path fill="#FDFDFD" d="M183.834,862.777c76.104,0,137.799,8.135,137.799,18.168c0,10.03-61.695,18.168-137.799,18.168
				s-137.8-8.138-137.8-18.168C46.034,870.912,107.729,862.777,183.834,862.777z"/>
			<path fill="#FCFCFC" d="M183.834,863.172c74.452,0,134.807,7.958,134.807,17.773c0,9.812-60.355,17.773-134.807,17.773
				s-134.809-7.961-134.809-17.773C49.025,871.13,109.382,863.172,183.834,863.172z"/>
			<path fill="#FAFBFB" d="M183.834,863.566c72.8,0,131.815,7.781,131.815,17.379c0,9.594-59.016,17.379-131.815,17.379
				S52.018,890.54,52.018,880.945C52.018,871.348,111.034,863.566,183.834,863.566z"/>
			<path fill="#F9F9FA" d="M183.834,863.961c71.147,0,128.823,7.604,128.823,16.984c0,9.376-57.676,16.984-128.823,16.984
				S55.01,890.322,55.01,880.945C55.01,871.565,112.687,863.961,183.834,863.961z"/>
			<path fill="#F8F8F9" d="M183.834,864.355c69.495,0,125.831,7.428,125.831,16.589c0,9.16-56.336,16.591-125.831,16.591
				s-125.832-7.431-125.832-16.591C58.002,871.783,114.339,864.355,183.834,864.355z"/>
			<path fill="#F7F7F8" d="M183.834,864.75c67.842,0,122.838,7.251,122.838,16.195c0,8.941-54.996,16.195-122.838,16.195
				s-122.84-7.254-122.84-16.195C60.994,872.001,115.992,864.75,183.834,864.75z"/>
			<path fill="#F6F7F7" d="M183.834,865.145c66.189,0,119.847,7.074,119.847,15.801c0,8.723-53.657,15.801-119.847,15.801
				s-119.847-7.078-119.847-15.801C63.987,872.219,117.645,865.145,183.834,865.145z"/>
			<path fill="#F5F6F6" d="M183.834,865.539c64.537,0,116.854,6.898,116.854,15.406c0,8.506-52.317,15.407-116.854,15.407
				s-116.855-6.901-116.855-15.407C66.979,872.437,119.297,865.539,183.834,865.539z"/>
			<path fill="#F4F5F5" d="M183.834,865.934c62.885,0,113.862,6.721,113.862,15.011c0,8.288-50.978,15.012-113.862,15.012
				c-62.884,0-113.863-6.725-113.863-15.012C69.971,872.654,120.95,865.934,183.834,865.934z"/>
			<path fill="#F4F4F4" d="M183.834,866.328c61.232,0,110.87,6.544,110.87,14.617c0,8.07-49.638,14.618-110.87,14.618
				c-61.232,0-110.871-6.548-110.871-14.618C72.963,872.873,122.602,866.328,183.834,866.328z"/>
			<path fill="#F3F3F4" d="M183.834,866.723c59.58,0,107.878,6.367,107.878,14.222c0,7.852-48.299,14.223-107.878,14.223
				c-59.579,0-107.879-6.371-107.879-14.223C75.955,873.09,124.255,866.723,183.834,866.723z"/>
			<ellipse fill="#F2F2F3" cx="183.834" cy="880.945" rx="104.886" ry="13.828"/>
			<ellipse fill="#F1F2F2" cx="183.834" cy="880.945" rx="101.894" ry="13.434"/>
			<ellipse fill="#F0F1F1" cx="183.834" cy="880.946" rx="98.901" ry="13.039"/>
			<ellipse fill="#EFF0F1" cx="183.834" cy="880.945" rx="95.909" ry="12.645"/>
			<ellipse fill="#EFEFF0" cx="183.834" cy="880.946" rx="92.917" ry="12.25"/>
			<ellipse fill="#EEEEEF" cx="183.834" cy="880.945" rx="89.925" ry="11.855"/>
			<ellipse fill="#EDEEEE" cx="183.834" cy="880.946" rx="86.934" ry="11.461"/>
			<ellipse fill="#ECEDEE" cx="183.834" cy="880.946" rx="83.941" ry="11.066"/>
			<ellipse fill="#EBECED" cx="183.834" cy="880.946" rx="80.949" ry="10.672"/>
			<ellipse fill="#EBEBEC" cx="183.834" cy="880.946" rx="77.957" ry="10.278"/>
			<ellipse fill="#EAEAEB" cx="183.834" cy="880.946" rx="74.965" ry="9.883"/>
			<ellipse fill="#E9EAEB" cx="183.834" cy="880.946" rx="71.973" ry="9.488"/>
			<ellipse fill="#E8E9EA" cx="183.834" cy="880.946" rx="68.98" ry="9.094"/>
			<ellipse fill="#E7E8E9" cx="183.834" cy="880.946" rx="65.988" ry="8.699"/>
			<ellipse fill="#E6E7E8" cx="183.834" cy="880.946" rx="62.996" ry="8.305"/>
			<ellipse fill="#E5E6E7" cx="183.834" cy="880.946" rx="60.004" ry="7.91"/>
			<ellipse fill="#E5E6E7" cx="183.834" cy="880.946" rx="57.012" ry="7.516"/>
			<ellipse fill="#E4E5E6" cx="183.834" cy="880.946" rx="54.02" ry="7.121"/>
			<ellipse fill="#E3E4E5" cx="183.834" cy="880.946" rx="51.028" ry="6.727"/>
			<ellipse fill="#E2E3E4" cx="183.834" cy="880.946" rx="48.036" ry="6.332"/>
			<ellipse fill="#E1E2E4" cx="183.834" cy="880.946" rx="45.043" ry="5.938"/>
			<ellipse fill="#E1E2E3" cx="183.834" cy="880.946" rx="42.051" ry="5.543"/>
			<ellipse fill="#E0E1E2" cx="183.834" cy="880.946" rx="39.06" ry="5.148"/>
			<ellipse fill="#DFE0E1" cx="183.834" cy="880.946" rx="36.067" ry="4.754"/>
			<ellipse fill="#DEDFE0" cx="183.834" cy="880.946" rx="33.075" ry="4.359"/>
			<ellipse fill="#DDDEE0" cx="183.834" cy="880.946" rx="30.083" ry="3.965"/>
			<ellipse fill="#DDDEDF" cx="183.834" cy="880.946" rx="27.091" ry="3.57"/>
			<ellipse fill="#DCDDDE" cx="183.834" cy="880.943" rx="24.099" ry="3.179"/>
		</g>
		<g>
			<linearGradient id="SVGID_9_" gradientUnits="userSpaceOnUse" x1="110.897" y1="801.6416" x2="110.897" y2="620.3184">
				<stop  offset="0" style="stop-color:#BFA344"/>
				<stop  offset="1" style="stop-color:#E8C453"/>
			</linearGradient>
			<path fill="url(#SVGID_9_)" d="M181.115,801.642c-23.914-21.223-73.473-11.64-140.436-11.64V622.477
				c66.963,0,116.522-9.584,140.436,11.639V801.642z"/>
			<linearGradient id="SVGID_10_" gradientUnits="userSpaceOnUse" x1="120.3423" y1="801.6416" x2="120.3423" y2="603.6416">
				<stop  offset="0" style="stop-color:#BFA344"/>
				<stop  offset="1" style="stop-color:#E8C453"/>
			</linearGradient>
			<path fill="url(#SVGID_10_)" d="M181.115,801.642c-23.914-21.223-73.473-11.64-121.545-30.474V603.642
				c48.073,18.835,97.632,9.251,121.545,30.474V801.642z"/>
			<linearGradient id="SVGID_11_" gradientUnits="userSpaceOnUse" x1="129.7876" y1="801.6416" x2="129.7876" y2="588.8428">
				<stop  offset="0" style="stop-color:#BFA344"/>
				<stop  offset="1" style="stop-color:#E8C453"/>
			</linearGradient>
			<path fill="url(#SVGID_11_)" d="M181.115,801.642c-23.914-21.223-73.473-11.64-102.655-45.272V588.843
				c29.182,33.634,78.741,24.05,102.655,45.272V801.642z"/>
			
				<linearGradient id="SVGID_12_" gradientUnits="userSpaceOnUse" x1="73.7153" y1="801.6411" x2="73.7153" y2="620.3179" gradientTransform="matrix(-1 0 0 1 330.4854 0)">
				<stop  offset="0" style="stop-color:#BFA344"/>
				<stop  offset="1" style="stop-color:#E8C453"/>
			</linearGradient>
			<path fill="url(#SVGID_12_)" d="M186.552,801.642c23.914-21.223,73.473-11.64,140.436-11.64V622.477
				c-66.963,0-116.522-9.584-140.436,11.639V801.642z"/>
			
				<linearGradient id="SVGID_13_" gradientUnits="userSpaceOnUse" x1="83.1606" y1="801.6411" x2="83.1606" y2="603.6411" gradientTransform="matrix(-1 0 0 1 330.4854 0)">
				<stop  offset="0" style="stop-color:#BFA344"/>
				<stop  offset="1" style="stop-color:#E8C453"/>
			</linearGradient>
			<path fill="url(#SVGID_13_)" d="M186.552,801.642c23.914-21.223,73.473-11.64,121.546-30.474V603.642
				c-48.073,18.835-97.632,9.251-121.546,30.474V801.642z"/>
			
				<linearGradient id="SVGID_14_" gradientUnits="userSpaceOnUse" x1="92.606" y1="801.6411" x2="92.6059" y2="588.8423" gradientTransform="matrix(-1 0 0 1 330.4854 0)">
				<stop  offset="0" style="stop-color:#BFA344"/>
				<stop  offset="1" style="stop-color:#E8C453"/>
			</linearGradient>
			<path fill="url(#SVGID_14_)" d="M186.552,801.642c23.914-21.223,73.473-11.64,102.655-45.272V588.843
				c-29.183,33.634-78.741,24.05-102.655,45.272V801.642z"/>
		</g>
	</g>
	<g>
		<g>
			<path fill="#FFFFFF" d="M667.734,880.945c0,10.248-63.034,18.562-140.792,18.562s-140.792-8.314-140.792-18.562
				c0-10.251,63.035-18.562,140.792-18.562S667.734,870.694,667.734,880.945z"/>
			<path fill="#FDFDFD" d="M526.942,862.777c76.105,0,137.799,8.135,137.799,18.168c0,10.03-61.694,18.168-137.799,18.168
				s-137.8-8.138-137.8-18.168C389.142,870.912,450.837,862.777,526.942,862.777z"/>
			<path fill="#FCFCFC" d="M526.942,863.172c74.452,0,134.808,7.958,134.808,17.773c0,9.812-60.355,17.773-134.808,17.773
				s-134.808-7.961-134.808-17.773C392.134,871.13,452.49,863.172,526.942,863.172z"/>
			<path fill="#FAFBFB" d="M526.942,863.566c72.8,0,131.815,7.781,131.815,17.379c0,9.594-59.015,17.379-131.815,17.379
				s-131.816-7.785-131.816-17.379C395.126,871.348,454.143,863.566,526.942,863.566z"/>
			<path fill="#F9F9FA" d="M526.942,863.961c71.147,0,128.823,7.604,128.823,16.984c0,9.376-57.675,16.984-128.823,16.984
				c-71.147,0-128.824-7.608-128.824-16.984C398.118,871.565,455.795,863.961,526.942,863.961z"/>
			<path fill="#F8F8F9" d="M526.942,864.355c69.495,0,125.831,7.428,125.831,16.589c0,9.16-56.336,16.591-125.831,16.591
				s-125.832-7.431-125.832-16.591C401.11,871.783,457.448,864.355,526.942,864.355z"/>
			<path fill="#F7F7F8" d="M526.942,864.75c67.842,0,122.839,7.251,122.839,16.195c0,8.941-54.997,16.195-122.839,16.195
				s-122.84-7.254-122.84-16.195C404.103,872.001,459.101,864.75,526.942,864.75z"/>
			<path fill="#F6F7F7" d="M526.942,865.145c66.19,0,119.847,7.074,119.847,15.801c0,8.723-53.657,15.801-119.847,15.801
				s-119.847-7.078-119.847-15.801C407.095,872.219,460.752,865.145,526.942,865.145z"/>
			<path fill="#F5F6F6" d="M526.942,865.539c64.537,0,116.854,6.898,116.854,15.406c0,8.506-52.317,15.407-116.854,15.407
				s-116.855-6.901-116.855-15.407C410.087,872.437,462.405,865.539,526.942,865.539z"/>
			<path fill="#F4F5F5" d="M526.942,865.934c62.885,0,113.862,6.721,113.862,15.011c0,8.288-50.978,15.012-113.862,15.012
				s-113.863-6.725-113.863-15.012C413.08,872.654,464.058,865.934,526.942,865.934z"/>
			<path fill="#F4F4F4" d="M526.942,866.328c61.232,0,110.87,6.544,110.87,14.617c0,8.07-49.638,14.618-110.87,14.618
				c-61.232,0-110.871-6.548-110.871-14.618C416.071,872.873,465.71,866.328,526.942,866.328z"/>
			<path fill="#F3F3F4" d="M526.942,866.723c59.58,0,107.878,6.367,107.878,14.222c0,7.852-48.298,14.223-107.878,14.223
				s-107.879-6.371-107.879-14.223C419.063,873.09,467.363,866.723,526.942,866.723z"/>
			<ellipse fill="#F2F2F3" cx="526.942" cy="880.945" rx="104.886" ry="13.828"/>
			<ellipse fill="#F1F2F2" cx="526.942" cy="880.945" rx="101.894" ry="13.434"/>
			<ellipse fill="#F0F1F1" cx="526.942" cy="880.946" rx="98.901" ry="13.039"/>
			<ellipse fill="#EFF0F1" cx="526.942" cy="880.945" rx="95.909" ry="12.645"/>
			<ellipse fill="#EFEFF0" cx="526.942" cy="880.946" rx="92.918" ry="12.25"/>
			<ellipse fill="#EEEEEF" cx="526.942" cy="880.945" rx="89.926" ry="11.855"/>
			<ellipse fill="#EDEEEE" cx="526.942" cy="880.946" rx="86.933" ry="11.461"/>
			<ellipse fill="#ECEDEE" cx="526.942" cy="880.946" rx="83.941" ry="11.066"/>
			<ellipse fill="#EBECED" cx="526.942" cy="880.946" rx="80.949" ry="10.672"/>
			<ellipse fill="#EBEBEC" cx="526.942" cy="880.946" rx="77.957" ry="10.278"/>
			<ellipse fill="#EAEAEB" cx="526.942" cy="880.946" rx="74.965" ry="9.883"/>
			<ellipse fill="#E9EAEB" cx="526.942" cy="880.946" rx="71.973" ry="9.488"/>
			<ellipse fill="#E8E9EA" cx="526.942" cy="880.946" rx="68.98" ry="9.094"/>
			<ellipse fill="#E7E8E9" cx="526.942" cy="880.946" rx="65.988" ry="8.699"/>
			<ellipse fill="#E6E7E8" cx="526.942" cy="880.946" rx="62.996" ry="8.305"/>
			<ellipse fill="#E5E6E7" cx="526.942" cy="880.946" rx="60.004" ry="7.91"/>
			<ellipse fill="#E5E6E7" cx="526.942" cy="880.946" rx="57.012" ry="7.516"/>
			<ellipse fill="#E4E5E6" cx="526.942" cy="880.946" rx="54.02" ry="7.121"/>
			<ellipse fill="#E3E4E5" cx="526.942" cy="880.946" rx="51.027" ry="6.727"/>
			<ellipse fill="#E2E3E4" cx="526.942" cy="880.946" rx="48.036" ry="6.332"/>
			<ellipse fill="#E1E2E4" cx="526.942" cy="880.946" rx="45.043" ry="5.938"/>
			<ellipse fill="#E1E2E3" cx="526.942" cy="880.946" rx="42.051" ry="5.543"/>
			<ellipse fill="#E0E1E2" cx="526.942" cy="880.946" rx="39.06" ry="5.148"/>
			<ellipse fill="#DFE0E1" cx="526.942" cy="880.946" rx="36.067" ry="4.754"/>
			<ellipse fill="#DEDFE0" cx="526.942" cy="880.946" rx="33.075" ry="4.359"/>
			<ellipse fill="#DDDEE0" cx="526.942" cy="880.946" rx="30.083" ry="3.965"/>
			<ellipse fill="#DDDEDF" cx="526.942" cy="880.946" rx="27.091" ry="3.57"/>
			<ellipse fill="#DCDDDE" cx="526.942" cy="880.943" rx="24.099" ry="3.179"/>
		</g>
		<g>
			<linearGradient id="SVGID_15_" gradientUnits="userSpaceOnUse" x1="526.9419" y1="801.6416" x2="526.9419" y2="626.21">
				<stop  offset="0" style="stop-color:#7B6541"/>
				<stop  offset="1" style="stop-color:#BA9765"/>
			</linearGradient>
			<path fill="url(#SVGID_15_)" d="M522.726,801.642h1.298v-88.378c-3.714-1.231-6.415-4.694-6.415-8.822
				c0-5.154,4.179-9.334,9.333-9.334c5.155,0,9.334,4.18,9.334,9.334c0,4.129-2.699,7.591-6.417,8.822v88.378h1.298
				c8.626-32.747,33.153-70.137,56.429-83.76c-19.374-31.68-17.126-60.004-17.126-91.672h-87.039
				c0,31.668,2.248,59.992-17.126,91.672C489.573,731.505,514.1,768.895,522.726,801.642z"/>
			<linearGradient id="SVGID_16_" gradientUnits="userSpaceOnUse" x1="553.2471" y1="620.9062" x2="553.2471" y2="551.1948">
				<stop  offset="0" style="stop-color:#BFA344"/>
				<stop  offset="1" style="stop-color:#E8C453"/>
			</linearGradient>
			<path fill="url(#SVGID_16_)" d="M529.487,620.906v-61.26c8.465-5.592,28.852-9.783,47.52-8.06l-6.546,69.319H529.487z"/>
			<linearGradient id="SVGID_17_" gradientUnits="userSpaceOnUse" x1="500.6367" y1="620.9053" x2="500.6367" y2="551.1934">
				<stop  offset="0" style="stop-color:#BFA344"/>
				<stop  offset="1" style="stop-color:#E8C453"/>
			</linearGradient>
			<path fill="url(#SVGID_17_)" d="M524.396,620.905v-61.259c-8.465-5.593-28.852-9.784-47.52-8.062l6.545,69.32H524.396z"/>
		</g>
	</g>
	<g>
		<g>
			<path fill="#FFFFFF" d="M1017.59,880.945c0,10.248-63.034,18.562-140.792,18.562c-77.758,0-140.793-8.314-140.793-18.562
				c0-10.251,63.035-18.562,140.793-18.562C954.556,862.383,1017.59,870.694,1017.59,880.945z"/>
			<path fill="#FDFDFD" d="M876.798,862.777c76.105,0,137.799,8.135,137.799,18.168c0,10.03-61.694,18.168-137.799,18.168
				c-76.105,0-137.801-8.138-137.801-18.168C738.998,870.912,800.693,862.777,876.798,862.777z"/>
			<path fill="#FCFCFC" d="M876.798,863.172c74.452,0,134.807,7.958,134.807,17.773c0,9.812-60.355,17.773-134.807,17.773
				c-74.453,0-134.809-7.961-134.809-17.773C741.989,871.13,802.346,863.172,876.798,863.172z"/>
			<path fill="#FAFBFB" d="M876.798,863.566c72.799,0,131.815,7.781,131.815,17.379c0,9.594-59.016,17.379-131.815,17.379
				c-72.8,0-131.816-7.785-131.816-17.379C744.982,871.348,803.998,863.566,876.798,863.566z"/>
			<path fill="#F9F9FA" d="M876.798,863.961c71.147,0,128.823,7.604,128.823,16.984c0,9.376-57.676,16.984-128.823,16.984
				c-71.148,0-128.824-7.608-128.824-16.984C747.974,871.565,805.65,863.961,876.798,863.961z"/>
			<path fill="#F8F8F9" d="M876.798,864.355c69.495,0,125.831,7.428,125.831,16.589c0,9.16-56.336,16.591-125.831,16.591
				c-69.495,0-125.832-7.431-125.832-16.591C750.966,871.783,807.303,864.355,876.798,864.355z"/>
			<path fill="#F7F7F8" d="M876.798,864.75c67.843,0,122.839,7.251,122.839,16.195c0,8.941-54.996,16.195-122.839,16.195
				c-67.842,0-122.839-7.254-122.839-16.195C753.958,872.001,808.956,864.75,876.798,864.75z"/>
			<path fill="#F6F7F7" d="M876.798,865.145c66.189,0,119.847,7.074,119.847,15.801c0,8.723-53.657,15.801-119.847,15.801
				c-66.19,0-119.848-7.078-119.848-15.801C756.95,872.219,810.608,865.145,876.798,865.145z"/>
			<path fill="#F5F6F6" d="M876.798,865.539c64.537,0,116.854,6.898,116.854,15.406c0,8.506-52.317,15.407-116.854,15.407
				c-64.538,0-116.856-6.901-116.856-15.407C759.942,872.437,812.261,865.539,876.798,865.539z"/>
			<path fill="#F4F5F5" d="M876.799,865.934c62.884,0,113.861,6.721,113.861,15.011c0,8.288-50.978,15.012-113.861,15.012
				c-62.886,0-113.864-6.725-113.864-15.012C762.935,872.654,813.913,865.934,876.799,865.934z"/>
			<path fill="#F4F4F4" d="M876.798,866.328c61.232,0,110.87,6.544,110.87,14.617c0,8.07-49.638,14.618-110.87,14.618
				c-61.232,0-110.871-6.548-110.871-14.618C765.927,872.873,815.566,866.328,876.798,866.328z"/>
			<path fill="#F3F3F4" d="M876.798,866.723c59.58,0,107.878,6.367,107.878,14.222c0,7.852-48.298,14.223-107.878,14.223
				s-107.879-6.371-107.879-14.223C768.919,873.09,817.219,866.723,876.798,866.723z"/>
			<ellipse fill="#F2F2F3" cx="876.799" cy="880.945" rx="104.885" ry="13.828"/>
			<ellipse fill="#F1F2F2" cx="876.798" cy="880.945" rx="101.895" ry="13.434"/>
			<ellipse fill="#F0F1F1" cx="876.798" cy="880.946" rx="98.902" ry="13.039"/>
			<ellipse fill="#EFF0F1" cx="876.798" cy="880.945" rx="95.909" ry="12.645"/>
			<ellipse fill="#EFEFF0" cx="876.799" cy="880.946" rx="92.917" ry="12.25"/>
			<ellipse fill="#EEEEEF" cx="876.798" cy="880.945" rx="89.925" ry="11.855"/>
			<ellipse fill="#EDEEEE" cx="876.798" cy="880.946" rx="86.933" ry="11.461"/>
			<ellipse fill="#ECEDEE" cx="876.798" cy="880.946" rx="83.941" ry="11.066"/>
			<ellipse fill="#EBECED" cx="876.798" cy="880.946" rx="80.949" ry="10.672"/>
			<ellipse fill="#EBEBEC" cx="876.798" cy="880.946" rx="77.957" ry="10.278"/>
			<ellipse fill="#EAEAEB" cx="876.798" cy="880.946" rx="74.964" ry="9.883"/>
			<ellipse fill="#E9EAEB" cx="876.798" cy="880.946" rx="71.973" ry="9.488"/>
			<ellipse fill="#E8E9EA" cx="876.799" cy="880.946" rx="68.979" ry="9.094"/>
			<ellipse fill="#E7E8E9" cx="876.798" cy="880.946" rx="65.988" ry="8.699"/>
			<ellipse fill="#E6E7E8" cx="876.798" cy="880.946" rx="62.996" ry="8.305"/>
			<ellipse fill="#E5E6E7" cx="876.799" cy="880.946" rx="60.003" ry="7.91"/>
			<ellipse fill="#E5E6E7" cx="876.798" cy="880.946" rx="57.012" ry="7.516"/>
			<ellipse fill="#E4E5E6" cx="876.798" cy="880.946" rx="54.02" ry="7.121"/>
			<ellipse fill="#E3E4E5" cx="876.798" cy="880.946" rx="51.028" ry="6.727"/>
			<ellipse fill="#E2E3E4" cx="876.798" cy="880.946" rx="48.035" ry="6.332"/>
			<ellipse fill="#E1E2E4" cx="876.798" cy="880.946" rx="45.043" ry="5.938"/>
			<ellipse fill="#E1E2E3" cx="876.798" cy="880.946" rx="42.051" ry="5.543"/>
			<ellipse fill="#E0E1E2" cx="876.798" cy="880.946" rx="39.059" ry="5.148"/>
			<ellipse fill="#DFE0E1" cx="876.798" cy="880.946" rx="36.067" ry="4.754"/>
			<ellipse fill="#DEDFE0" cx="876.798" cy="880.946" rx="33.075" ry="4.359"/>
			<ellipse fill="#DDDEE0" cx="876.798" cy="880.946" rx="30.083" ry="3.965"/>
			<ellipse fill="#DDDEDF" cx="876.798" cy="880.946" rx="27.09" ry="3.57"/>
			<ellipse fill="#DCDDDE" cx="876.798" cy="880.943" rx="24.098" ry="3.179"/>
		</g>
		<g>
			<linearGradient id="SVGID_18_" gradientUnits="userSpaceOnUse" x1="876.7974" y1="801.6416" x2="876.7974" y2="613.834">
				<stop  offset="0" style="stop-color:#73A533"/>
				<stop  offset="1" style="stop-color:#ADC32B"/>
			</linearGradient>
			<path fill="url(#SVGID_18_)" d="M832.692,733.456h62.656c2.133,0,3.862-1.729,3.862-3.862s-1.729-3.862-3.862-3.862h-62.656
				c-2.133,0-3.862,1.729-3.862,3.862S830.559,733.456,832.692,733.456z M732.137,642.456c-2.133,0-3.862,1.729-3.862,3.862v151.461
				c0,2.133,1.729,3.862,3.862,3.862c2.134,0,3.863-1.729,3.863-3.862V646.318C736,644.186,734.271,642.456,732.137,642.456z
				 M832.692,779.786h62.656c2.133,0,3.862-1.729,3.862-3.862c0-2.134-1.729-3.863-3.862-3.863h-62.656
				c-2.133,0-3.862,1.729-3.862,3.863C828.83,778.057,830.559,779.786,832.692,779.786z M755.303,636.041
				c-2.133,0-3.862,1.729-3.862,3.862v157.876c0,2.133,1.729,3.862,3.862,3.862s3.862-1.729,3.862-3.862V639.903
				C759.165,637.771,757.437,636.041,755.303,636.041z M832.692,756.621h69.071c2.133,0,3.862-1.729,3.862-3.862
				s-1.729-3.862-3.862-3.862h-69.071c-2.133,0-3.862,1.729-3.862,3.862S830.559,756.621,832.692,756.621z M778.468,642.456
				c-2.133,0-3.862,1.729-3.862,3.862v151.461c0,2.133,1.729,3.862,3.862,3.862s3.862-1.729,3.862-3.862V646.318
				C782.33,644.186,780.601,642.456,778.468,642.456z M832.692,643.415h53.001c2.133,0,3.862-1.729,3.862-3.863
				c0-2.133-1.729-3.861-3.862-3.861h-53.001c-2.133,0-3.862,1.729-3.862,3.861C828.83,641.686,830.559,643.415,832.692,643.415z
				 M832.692,666.579h59.417c2.133,0,3.862-1.729,3.862-3.862c0-2.133-1.729-3.862-3.862-3.862h-59.417
				c-2.133,0-3.862,1.729-3.862,3.862C828.83,664.851,830.559,666.579,832.692,666.579z M832.692,689.744h53.001
				c2.133,0,3.862-1.729,3.862-3.861c0-2.134-1.729-3.863-3.862-3.863h-53.001c-2.133,0-3.862,1.729-3.862,3.863
				C828.83,688.016,830.559,689.744,832.692,689.744z M1043.313,635.69h-62.657c-2.133,0-3.862,1.729-3.862,3.861
				c0,2.134,1.729,3.863,3.862,3.863h62.657c2.133,0,3.862-1.729,3.862-3.863C1047.175,637.419,1045.446,635.69,1043.313,635.69z
				 M755.303,613.834c-26.955,0-48.883,21.93-48.883,48.883v135.062c0,2.133,1.729,3.862,3.862,3.862s3.862-1.729,3.862-3.862
				V662.717c0-22.694,18.463-41.157,41.159-41.157c22.695,0,41.157,18.463,41.157,41.157v135.062c0,2.133,1.73,3.862,3.862,3.862
				c2.133,0,3.863-1.729,3.863-3.862V662.717C804.186,635.764,782.256,613.834,755.303,613.834z M1043.313,726.604h-69.071
				c-2.133,0-3.862,1.729-3.862,3.861c0,2.134,1.729,3.863,3.862,3.863h69.071c2.133,0,3.862-1.729,3.862-3.863
				C1047.175,728.333,1045.446,726.604,1043.313,726.604z M1043.313,681.146h-69.071c-2.133,0-3.862,1.729-3.862,3.863
				c0,2.133,1.729,3.862,3.862,3.862h69.071c2.133,0,3.862-1.729,3.862-3.862C1047.175,682.876,1045.446,681.146,1043.313,681.146z
				 M1043.313,658.419h-69.071c-2.133,0-3.862,1.729-3.862,3.862c0,2.133,1.729,3.861,3.862,3.861h69.071
				c2.133,0,3.862-1.729,3.862-3.861C1047.175,660.147,1045.446,658.419,1043.313,658.419z M1043.313,703.875h-69.071
				c-2.133,0-3.862,1.729-3.862,3.862c0,2.134,1.729,3.863,3.862,3.863h69.071c2.133,0,3.862-1.729,3.862-3.863
				C1047.175,705.604,1045.446,703.875,1043.313,703.875z M892.412,705.775c15.325-8.261,25.765-24.462,25.765-43.059
				c0-26.953-21.929-48.883-48.883-48.883h-36.602c-2.133,0-3.862,1.729-3.862,3.862c0,2.134,1.729,3.863,3.862,3.863h36.602
				c22.695,0,41.159,18.463,41.159,41.157c0,22.695-18.463,41.158-41.159,41.158h-36.602c-2.133,0-3.862,1.729-3.862,3.862
				c0,2.134,1.729,3.863,3.862,3.863h46.257c22.696,0,41.16,18.463,41.16,41.158s-18.463,41.158-41.16,41.158h-46.257
				c-2.133,0-3.862,1.729-3.862,3.862c0,2.133,1.729,3.862,3.862,3.862h46.257c26.955,0,48.884-21.929,48.884-48.883
				C927.833,730.475,912.838,711.638,892.412,705.775z M1043.313,793.917h-46.258c-22.695,0-41.159-18.463-41.159-41.158v-90.042
				c0-22.694,18.463-41.157,41.159-41.157h46.258c2.133,0,3.862-1.729,3.862-3.863c0-2.133-1.729-3.862-3.862-3.862h-46.258
				c-26.954,0-48.883,21.93-48.883,48.883v90.042c0,26.954,21.93,48.883,48.883,48.883h46.258c2.133,0,3.862-1.729,3.862-3.862
				C1047.175,795.646,1045.446,793.917,1043.313,793.917z M1043.313,749.333h-69.071c-2.133,0-3.862,1.729-3.862,3.862
				c0,2.133,1.729,3.861,3.862,3.861h69.071c2.133,0,3.862-1.729,3.862-3.861C1047.175,751.062,1045.446,749.333,1043.313,749.333z
				 M1043.313,772.061h-62.657c-2.133,0-3.862,1.729-3.862,3.863c0,2.133,1.729,3.862,3.862,3.862h62.657
				c2.133,0,3.862-1.729,3.862-3.862C1047.175,773.79,1045.446,772.061,1043.313,772.061z"/>
		</g>
	</g>
	<g>
		<g>
			<path fill="#FFFFFF" d="M1359.677,880.945c0,10.248-63.034,18.562-140.792,18.562c-77.757,0-140.792-8.314-140.792-18.562
				c0-10.251,63.035-18.562,140.792-18.562C1296.643,862.383,1359.677,870.694,1359.677,880.945z"/>
			<path fill="#FDFDFD" d="M1218.885,862.777c76.105,0,137.8,8.135,137.8,18.168c0,10.03-61.694,18.168-137.8,18.168
				c-76.105,0-137.8-8.138-137.8-18.168C1081.085,870.912,1142.78,862.777,1218.885,862.777z"/>
			<path fill="#FCFCFC" d="M1218.885,863.172c74.453,0,134.808,7.958,134.808,17.773c0,9.812-60.355,17.773-134.808,17.773
				c-74.452,0-134.809-7.961-134.809-17.773C1084.077,871.13,1144.433,863.172,1218.885,863.172z"/>
			<path fill="#FAFBFB" d="M1218.885,863.566c72.8,0,131.815,7.781,131.815,17.379c0,9.594-59.015,17.379-131.815,17.379
				c-72.8,0-131.816-7.785-131.816-17.379C1087.069,871.348,1146.085,863.566,1218.885,863.566z"/>
			<path fill="#F9F9FA" d="M1218.885,863.961c71.148,0,128.824,7.604,128.824,16.984c0,9.376-57.676,16.984-128.824,16.984
				c-71.147,0-128.824-7.608-128.824-16.984C1090.062,871.565,1147.738,863.961,1218.885,863.961z"/>
			<path fill="#F8F8F9" d="M1218.885,864.355c69.496,0,125.832,7.428,125.832,16.589c0,9.16-56.336,16.591-125.832,16.591
				c-69.495,0-125.832-7.431-125.832-16.591C1093.054,871.783,1149.391,864.355,1218.885,864.355z"/>
			<path fill="#F7F7F8" d="M1218.885,864.75c67.843,0,122.839,7.251,122.839,16.195c0,8.941-54.996,16.195-122.839,16.195
				c-67.842,0-122.839-7.254-122.839-16.195C1096.046,872.001,1151.043,864.75,1218.885,864.75z"/>
			<path fill="#F6F7F7" d="M1218.885,865.145c66.19,0,119.848,7.074,119.848,15.801c0,8.723-53.657,15.801-119.848,15.801
				c-66.189,0-119.847-7.078-119.847-15.801C1099.038,872.219,1152.695,865.145,1218.885,865.145z"/>
			<path fill="#F5F6F6" d="M1218.885,865.539c64.538,0,116.855,6.898,116.855,15.406c0,8.506-52.317,15.407-116.855,15.407
				c-64.537,0-116.855-6.901-116.855-15.407C1102.03,872.437,1154.348,865.539,1218.885,865.539z"/>
			<path fill="#F4F5F5" d="M1218.885,865.934c62.885,0,113.863,6.721,113.863,15.011c0,8.288-50.978,15.012-113.863,15.012
				c-62.884,0-113.863-6.725-113.863-15.012C1105.022,872.654,1156.001,865.934,1218.885,865.934z"/>
			<path fill="#F4F4F4" d="M1218.885,866.328c61.232,0,110.871,6.544,110.871,14.617c0,8.07-49.638,14.618-110.871,14.618
				c-61.232,0-110.871-6.548-110.871-14.618C1108.015,872.873,1157.653,866.328,1218.885,866.328z"/>
			<path fill="#F3F3F4" d="M1218.886,866.723c59.579,0,107.878,6.367,107.878,14.222c0,7.852-48.299,14.223-107.878,14.223
				c-59.58,0-107.879-6.371-107.879-14.223C1111.007,873.09,1159.306,866.723,1218.886,866.723z"/>
			<ellipse fill="#F2F2F3" cx="1218.885" cy="880.945" rx="104.887" ry="13.828"/>
			<ellipse fill="#F1F2F2" cx="1218.885" cy="880.945" rx="101.894" ry="13.434"/>
			<ellipse fill="#F0F1F1" cx="1218.885" cy="880.946" rx="98.902" ry="13.039"/>
			<ellipse fill="#EFF0F1" cx="1218.886" cy="880.945" rx="95.909" ry="12.645"/>
			<ellipse fill="#EFEFF0" cx="1218.885" cy="880.946" rx="92.918" ry="12.25"/>
			<ellipse fill="#EEEEEF" cx="1218.885" cy="880.945" rx="89.926" ry="11.855"/>
			<ellipse fill="#EDEEEE" cx="1218.885" cy="880.946" rx="86.934" ry="11.461"/>
			<ellipse fill="#ECEDEE" cx="1218.885" cy="880.946" rx="83.941" ry="11.066"/>
			<ellipse fill="#EBECED" cx="1218.885" cy="880.946" rx="80.949" ry="10.672"/>
			<ellipse fill="#EBEBEC" cx="1218.885" cy="880.946" rx="77.957" ry="10.278"/>
			<ellipse fill="#EAEAEB" cx="1218.885" cy="880.946" rx="74.965" ry="9.883"/>
			<ellipse fill="#E9EAEB" cx="1218.885" cy="880.946" rx="71.973" ry="9.488"/>
			<ellipse fill="#E8E9EA" cx="1218.886" cy="880.946" rx="68.98" ry="9.094"/>
			<ellipse fill="#E7E8E9" cx="1218.886" cy="880.946" rx="65.988" ry="8.699"/>
			<ellipse fill="#E6E7E8" cx="1218.885" cy="880.946" rx="62.997" ry="8.305"/>
			<ellipse fill="#E5E6E7" cx="1218.885" cy="880.946" rx="60.004" ry="7.91"/>
			<ellipse fill="#E5E6E7" cx="1218.885" cy="880.946" rx="57.013" ry="7.516"/>
			<ellipse fill="#E4E5E6" cx="1218.885" cy="880.946" rx="54.02" ry="7.121"/>
			<ellipse fill="#E3E4E5" cx="1218.885" cy="880.946" rx="51.028" ry="6.727"/>
			<ellipse fill="#E2E3E4" cx="1218.885" cy="880.946" rx="48.036" ry="6.332"/>
			<ellipse fill="#E1E2E4" cx="1218.885" cy="880.946" rx="45.043" ry="5.938"/>
			<ellipse fill="#E1E2E3" cx="1218.886" cy="880.946" rx="42.051" ry="5.543"/>
			<ellipse fill="#E0E1E2" cx="1218.885" cy="880.946" rx="39.059" ry="5.148"/>
			<ellipse fill="#DFE0E1" cx="1218.885" cy="880.946" rx="36.067" ry="4.754"/>
			<ellipse fill="#DEDFE0" cx="1218.885" cy="880.946" rx="33.075" ry="4.359"/>
			<ellipse fill="#DDDEE0" cx="1218.885" cy="880.946" rx="30.083" ry="3.965"/>
			<ellipse fill="#DDDEDF" cx="1218.885" cy="880.946" rx="27.091" ry="3.57"/>
			<ellipse fill="#DCDDDE" cx="1218.885" cy="880.943" rx="24.098" ry="3.179"/>
		</g>
		<g>
			<g>
				<linearGradient id="SVGID_19_" gradientUnits="userSpaceOnUse" x1="1267.6045" y1="652.7246" x2="1267.6045" y2="602.6748">
					<stop  offset="0" style="stop-color:#7B6541"/>
					<stop  offset="1" style="stop-color:#BA9765"/>
				</linearGradient>
				<path fill="url(#SVGID_19_)" d="M1324.672,652.725c8.448,0,15.295-8.818,15.295-19.696c0-18.599-13.775-30.354-28.731-30.354
					h-115.994c14.956,0,28.731,11.755,28.731,30.354c0,10.878-6.847,19.696-15.295,19.696H1324.672z"/>
				<linearGradient id="SVGID_20_" gradientUnits="userSpaceOnUse" x1="1259.0293" y1="652.7246" x2="1259.0293" y2="633.0283">
					<stop  offset="0" style="stop-color:#BFA344"/>
					<stop  offset="1" style="stop-color:#E8C453"/>
				</linearGradient>
				<path fill="url(#SVGID_20_)" d="M1324.672,652.725c-8.445,0-15.292-8.818-15.292-19.696h-115.994
					c0,10.878,6.847,19.696,15.292,19.696H1324.672z"/>
				<linearGradient id="SVGID_21_" gradientUnits="userSpaceOnUse" x1="1239.4058" y1="801.6416" x2="1239.4058" y2="602.6748">
					<stop  offset="0" style="stop-color:#BFA344"/>
					<stop  offset="1" style="stop-color:#E8C453"/>
				</linearGradient>
				<path fill="url(#SVGID_21_)" d="M1311.236,602.675c-10.658,0-31.978,7.404-31.978,44.747c0,35.199,36.29,74.274,36.29,109.474
					c0,37.342-21.319,44.746-31.978,44.746h-115.994c10.658,0,31.977-7.404,31.977-44.746c0-35.199-36.289-74.274-36.289-109.474
					c0-37.343,21.319-44.747,31.978-44.747H1311.236z"/>
			</g>
			
				<linearGradient id="SVGID_22_" gradientUnits="userSpaceOnUse" x1="223.2856" y1="770.8511" x2="223.2856" y2="619.894" gradientTransform="matrix(-1 0 0 1 1396.5664 0)">
				<stop  offset="0" style="stop-color:#7B6541"/>
				<stop  offset="1" style="stop-color:#BA9765"/>
			</linearGradient>
			<path fill="url(#SVGID_22_)" d="M1106.276,667.082c-10.386-16.353-9.576-37.131-6.228-44.938
				c7.81-3.352,28.588-4.162,44.939,6.225c25.058,15.919,55.068,55.856,74.494,77.768c-3.498,12.142-0.405,25.908,0.964,30.909
				c16.255,17.013,28.314,30.762,28.313,33.807L1136.018,658.11c0,0,43.012,47.901,80.897,85.005c0,0-17.719-5.907-32.871-1.542
				C1162.132,722.15,1122.195,692.137,1106.276,667.082z"/>
			<g>
				<linearGradient id="SVGID_23_" gradientUnits="userSpaceOnUse" x1="1219.8687" y1="771.2549" x2="1219.8687" y2="751.5586">
					<stop  offset="0" style="stop-color:#7B6541"/>
					<stop  offset="1" style="stop-color:#BA9765"/>
				</linearGradient>
				<path fill="url(#SVGID_23_)" d="M1154.226,751.559c8.445,0,15.292,8.818,15.292,19.696h115.994
					c0-10.878-6.847-19.696-15.292-19.696H1154.226z"/>
			</g>
			<linearGradient id="SVGID_24_" gradientUnits="userSpaceOnUse" x1="1211.2935" y1="801.6084" x2="1211.2935" y2="751.5586">
				<stop  offset="0" style="stop-color:#E8C453"/>
				<stop  offset="1" style="stop-color:#EDD180"/>
			</linearGradient>
			<path fill="url(#SVGID_24_)" d="M1154.226,751.559c-8.448,0-15.295,8.818-15.295,19.696c0,18.599,13.776,30.354,28.732,30.354
				h115.994c-14.956,0-28.731-11.755-28.731-30.354c0-10.878,6.847-19.696,15.294-19.696H1154.226z"/>
		</g>
	</g>
	<g>
		<g>
			<path fill="#FFFFFF" d="M1359.677,396.257c0,10.249-63.034,18.562-140.792,18.562c-77.757,0-140.792-8.313-140.792-18.562
				c0-10.25,63.035-18.562,140.792-18.562C1296.643,377.695,1359.677,386.007,1359.677,396.257z"/>
			<ellipse fill="#FDFDFD" cx="1218.885" cy="396.257" rx="137.8" ry="18.167"/>
			<ellipse fill="#FCFCFC" cx="1218.885" cy="396.257" rx="134.808" ry="17.773"/>
			<ellipse fill="#FAFBFB" cx="1218.885" cy="396.258" rx="131.815" ry="17.379"/>
			<ellipse fill="#F9F9FA" cx="1218.885" cy="396.258" rx="128.824" ry="16.984"/>
			<ellipse fill="#F8F8F9" cx="1218.885" cy="396.257" rx="125.832" ry="16.589"/>
			<ellipse fill="#F7F7F8" cx="1218.885" cy="396.257" rx="122.839" ry="16.195"/>
			<ellipse fill="#F6F7F7" cx="1218.885" cy="396.258" rx="119.848" ry="15.801"/>
			<ellipse fill="#F5F6F6" cx="1218.885" cy="396.258" rx="116.855" ry="15.406"/>
			<ellipse fill="#F4F5F5" cx="1218.885" cy="396.258" rx="113.863" ry="15.011"/>
			<ellipse fill="#F4F4F4" cx="1218.885" cy="396.258" rx="110.871" ry="14.617"/>
			<ellipse fill="#F3F3F4" cx="1218.886" cy="396.258" rx="107.878" ry="14.222"/>
			<ellipse fill="#F2F2F3" cx="1218.885" cy="396.258" rx="104.887" ry="13.828"/>
			<ellipse fill="#F1F2F2" cx="1218.885" cy="396.258" rx="101.894" ry="13.433"/>
			<ellipse fill="#F0F1F1" cx="1218.885" cy="396.258" rx="98.902" ry="13.039"/>
			<ellipse fill="#EFF0F1" cx="1218.886" cy="396.258" rx="95.909" ry="12.645"/>
			<ellipse fill="#EFEFF0" cx="1218.885" cy="396.258" rx="92.918" ry="12.25"/>
			<ellipse fill="#EEEEEF" cx="1218.885" cy="396.258" rx="89.926" ry="11.855"/>
			<ellipse fill="#EDEEEE" cx="1218.885" cy="396.258" rx="86.934" ry="11.461"/>
			<ellipse fill="#ECEDEE" cx="1218.885" cy="396.258" rx="83.941" ry="11.066"/>
			<ellipse fill="#EBECED" cx="1218.885" cy="396.258" rx="80.949" ry="10.672"/>
			<ellipse fill="#EBEBEC" cx="1218.885" cy="396.258" rx="77.957" ry="10.277"/>
			<ellipse fill="#EAEAEB" cx="1218.885" cy="396.258" rx="74.965" ry="9.883"/>
			<ellipse fill="#E9EAEB" cx="1218.885" cy="396.258" rx="71.973" ry="9.488"/>
			<ellipse fill="#E8E9EA" cx="1218.886" cy="396.258" rx="68.98" ry="9.094"/>
			<ellipse fill="#E7E8E9" cx="1218.886" cy="396.258" rx="65.988" ry="8.699"/>
			<ellipse fill="#E6E7E8" cx="1218.885" cy="396.259" rx="62.997" ry="8.304"/>
			<ellipse fill="#E5E6E7" cx="1218.885" cy="396.258" rx="60.004" ry="7.91"/>
			<ellipse fill="#E5E6E7" cx="1218.885" cy="396.259" rx="57.013" ry="7.515"/>
			<ellipse fill="#E4E5E6" cx="1218.885" cy="396.258" rx="54.02" ry="7.121"/>
			<ellipse fill="#E3E4E5" cx="1218.885" cy="396.259" rx="51.028" ry="6.727"/>
			<ellipse fill="#E2E3E4" cx="1218.885" cy="396.258" rx="48.036" ry="6.332"/>
			<ellipse fill="#E1E2E4" cx="1218.885" cy="396.259" rx="45.043" ry="5.937"/>
			<ellipse fill="#E1E2E3" cx="1218.886" cy="396.259" rx="42.051" ry="5.543"/>
			<ellipse fill="#E0E1E2" cx="1218.885" cy="396.259" rx="39.059" ry="5.149"/>
			<ellipse fill="#DFE0E1" cx="1218.885" cy="396.259" rx="36.067" ry="4.754"/>
			<ellipse fill="#DEDFE0" cx="1218.885" cy="396.259" rx="33.075" ry="4.359"/>
			<ellipse fill="#DDDEE0" cx="1218.885" cy="396.259" rx="30.083" ry="3.965"/>
			<ellipse fill="#DDDEDF" cx="1218.885" cy="396.259" rx="27.091" ry="3.57"/>
			<ellipse fill="#DCDDDE" cx="1218.885" cy="396.256" rx="24.098" ry="3.179"/>
		</g>
		<g>
			<linearGradient id="SVGID_25_" gradientUnits="userSpaceOnUse" x1="1220.2002" y1="316.9531" x2="1220.2002" y2="80.4922">
				<stop  offset="0" style="stop-color:#F7941E"/>
				<stop  offset="1" style="stop-color:#FFCB05"/>
			</linearGradient>
			<path fill="url(#SVGID_25_)" d="M1220.202,80.492l-4.036,11.54h8.07L1220.202,80.492z M1206.701,151.989
				c-1.432-1.432-3.335-2.22-5.359-2.22c-4.182,0-7.584,3.401-7.584,7.58v159.604h15.164l-0.002-159.605
				C1208.92,155.324,1208.132,153.421,1206.701,151.989z M1239.066,149.77c-2.032,0-3.935,0.788-5.366,2.22
				c-1.431,1.432-2.218,3.335-2.217,5.36v159.604h15.161V157.348C1246.643,153.169,1243.244,149.77,1239.066,149.77z
				 M1220.2,149.768c-4.178,0.001-7.579,3.403-7.58,7.581l0.002,159.604h15.161V157.351
				C1227.781,153.169,1224.378,149.768,1220.2,149.768z M1243.443,146.954l-17.911-51.222h-10.659l-17.915,51.224
				c1.348-0.571,2.829-0.887,4.383-0.887c3.013,0,5.845,1.173,7.975,3.303c0.554,0.554,1.04,1.157,1.46,1.796
				c2.019-3.066,5.486-5.099,9.422-5.101c3.938,0,7.407,2.032,9.426,5.101c0.419-0.639,0.905-1.24,1.458-1.794
				c2.13-2.131,4.962-3.305,7.976-3.305C1240.613,146.069,1242.094,146.385,1243.443,146.954z"/>
			<linearGradient id="SVGID_26_" gradientUnits="userSpaceOnUse" x1="1290.9131" y1="316.9531" x2="1290.9131" y2="83.4658">
				<stop  offset="0" style="stop-color:#F15A22"/>
				<stop  offset="1" style="stop-color:#FAA61A"/>
			</linearGradient>
			<path fill="url(#SVGID_26_)" d="M1295.7,98.2l-4.786-14.734l-4.786,14.734h4.788H1295.7z M1290.914,167.726l-22.454,0.001
				l-0.001,149.227h44.909V167.726H1290.914z M1312.884,164.025l-14.56-62.126l-7.496,0.001l-7.247,0.001h-0.076l-14.562,62.125
				l21.971-0.001H1312.884z"/>
			<linearGradient id="SVGID_27_" gradientUnits="userSpaceOnUse" x1="1150.1245" y1="316.9531" x2="1150.1245" y2="90.9238">
				<stop  offset="0" style="stop-color:#C4161C"/>
				<stop  offset="1" style="stop-color:#ED1C24"/>
			</linearGradient>
			<path fill="url(#SVGID_27_)" d="M1165.704,168.906c0.367-23.974,7.784-41.52,10.144-46.512
				c-4.139-3.25-17.153-14.479-23.871-31.471l-0.003,31.201c2.447,0.787,4.235,3.058,4.235,5.762c0,3.354-2.728,6.081-6.081,6.081
				h-0.001c-1.626,0-3.155-0.634-4.304-1.783c-1.148-1.148-1.779-2.675-1.777-4.298c0-2.703,1.784-4.974,4.228-5.762l0.004-31.197
				c-6.72,16.99-19.735,28.218-23.874,31.467c2.359,4.992,9.776,22.538,10.146,46.512H1165.704z M1128.228,172.607v144.346h43.796
				l-0.003-144.347L1128.228,172.607z"/>
		</g>
	</g>
</g>
</svg>
